<?xml version="1.0" standalone="no"?>
<!DOCTYPE svg PUBLIC "-//W3C//DTD SVG 20010904//EN"
 "http://www.w3.org/TR/2001/REC-SVG-20010904/DTD/svg10.dtd">
<svg version="1.0" xmlns="http://www.w3.org/2000/svg"
 width="262.000000pt" height="262.000000pt" viewBox="0 0 262.000000 262.000000"
 preserveAspectRatio="xMidYMid meet">
<metadata>
Created by potrace 1.11, written by Peter Selinger 2001-2013
</metadata>
<g transform="translate(0.000000,262.000000) scale(0.100000,-0.100000)"
fill="#000000" stroke="none">
<path d="M255 2357 c-3 -7 -3 -154 -2 -327 l2 -315 1048 0 c577 0 1053 2 1058
5 5 4 8 145 6 325 l-2 320 -1053 2 c-804 1 -1054 -1 -1057 -10z"/>
<path d="M254 1625 c-2 -5 -3 -152 -1 -325 l2 -315 1055 0 1055 0 2 323 c2
250 0 322 -10 323 -6 1 -482 2 -1056 3 -699 1 -1045 -2 -1047 -9z"/>
<path d="M254 895 c-2 -5 -3 -152 -2 -325 l3 -315 1055 0 1055 0 2 323 c1 177
-1 323 -5 323 -4 1 -479 2 -1056 3 -692 1 -1050 -2 -1052 -9z"/>
</g>
</svg>
